<?xml version="1.0" standalone="no"?>
<!DOCTYPE svg PUBLIC "-//W3C//DTD SVG 20010904//EN"
 "http://www.w3.org/TR/2001/REC-SVG-20010904/DTD/svg10.dtd">
<svg version="1.0" xmlns="http://www.w3.org/2000/svg"
 width="260.000000pt" height="260.000000pt" viewBox="0 0 260.000000 260.000000"
 preserveAspectRatio="xMidYMid meet">
<metadata>
Created by potrace 1.11, written by Peter Selinger 2001-2013
</metadata>
<g transform="translate(0.000000,260.000000) scale(0.100000,-0.100000)"
fill="#000000" stroke="none">
<path d="M1412 2301 c-13 -8 -41 -94 -96 -291 -23 -81 -164 -568 -187 -645
-17 -55 -32 -107 -34 -115 -2 -8 -38 -132 -79 -275 -164 -561 -160 -544 -149
-568 9 -18 34 -30 124 -56 129 -38 178 -46 198 -33 7 5 37 92 66 193 30 101
78 270 109 374 67 229 195 673 301 1038 62 213 76 272 68 290 -8 18 -36 30
-140 60 -135 38 -159 42 -181 28z"/>
<path d="M595 1848 c-24 -24 -88 -83 -141 -133 -53 -49 -121 -112 -150 -140
-29 -27 -98 -93 -153 -144 -75 -70 -101 -101 -101 -120 0 -25 37 -64 250 -261
56 -52 131 -122 165 -155 197 -189 201 -191 262 -124 21 22 58 61 83 87 90 93
97 115 49 159 -59 55 -300 267 -327 288 -4 3 40 45 98 95 29 25 67 59 85 75
18 17 63 55 99 85 96 81 97 99 2 196 -28 29 -68 71 -89 93 -49 54 -74 53 -132
-1z"/>
<path d="M1873 1849 c-21 -22 -58 -61 -83 -86 -78 -78 -95 -117 -66 -145 7 -8
41 -38 76 -68 34 -30 75 -66 90 -80 15 -14 49 -43 75 -65 26 -22 60 -53 76
-68 l28 -29 -24 -24 c-13 -13 -26 -24 -29 -24 -3 0 -21 -15 -39 -33 -19 -17
-60 -55 -92 -82 -147 -126 -175 -154 -175 -179 0 -20 43 -71 166 -198 20 -22
46 -38 58 -38 27 0 34 6 335 290 26 25 100 94 164 154 88 82 117 116 117 134
0 18 -25 49 -91 113 -50 49 -92 89 -94 89 -2 0 -28 24 -58 53 -58 56 -248 234
-311 292 -51 46 -76 45 -123 -6z"/>
</g>
</svg>
